<?xml version="1.0" encoding="iso-8859-1"?>
<!DOCTYPE svg PUBLIC "-//W3C//DTD SVG 1.1//EN" "http://www.w3.org/Graphics/SVG/1.1/DTD/svg11.dtd">
<svg xmlns="http://www.w3.org/2000/svg" xmlns:xlink="http://www.w3.org/1999/xlink" version="1.1" viewBox="0 0 440.792 440.792" enable-background="new 0 0 440.792 440.792" width="512px" height="512px">
  <g>
    <path d="m64.399,128.094c1.98,0 3.91-0.8 5.31-2.2 1.39-1.39 2.2-3.33 2.2-5.3 0-1.97-0.81-3.91-2.2-5.3-1.4-1.4-3.33-2.2-5.31-2.2-1.97,0-3.9,0.8-5.3,2.2-1.4,1.39-2.2,3.33-2.2,5.3 0,1.97 0.8,3.91 2.2,5.3 1.4,1.401 3.33,2.2 5.3,2.2z" fill="#FFFFFF"/>
    <path d="m168.399,128.094c1.97,0 3.91-0.8 5.3-2.2 1.4-1.39 2.2-3.33 2.2-5.3 0-1.97-0.8-3.91-2.2-5.3-1.39-1.4-3.33-2.2-5.3-2.2-1.97,0-3.91,0.8-5.3,2.2-1.4,1.39-2.2,3.33-2.2,5.3 0,1.97 0.8,3.91 2.2,5.3 1.39,1.401 3.33,2.2 5.3,2.2z" fill="#FFFFFF"/>
    <path d="m376.389,128.094c1.97,0 3.909-0.8 5.3-2.2 1.399-1.39 2.2-3.33 2.2-5.3 0-1.97-0.801-3.91-2.2-5.3-1.391-1.4-3.33-2.2-5.3-2.2-1.971,0-3.91,0.8-5.301,2.2-1.399,1.39-2.199,3.32-2.199,5.3 0,1.97 0.8,3.91 2.199,5.3 1.391,1.401 3.33,2.2 5.301,2.2z" fill="#FFFFFF"/>
    <path d="m272.389,128.094c1.979,0 3.909-0.8 5.31-2.2 1.39-1.39 2.19-3.33 2.19-5.3 0-1.97-0.801-3.91-2.19-5.3-1.4-1.4-3.33-2.2-5.31-2.2-1.971,0-3.9,0.8-5.301,2.2-1.39,1.39-2.199,3.33-2.199,5.3 0,1.98 0.81,3.91 2.199,5.3 1.401,1.401 3.33,2.2 5.301,2.2z" fill="#FFFFFF"/>
    <path d="m408.915,56.209h-377.038c-17.577,0-31.877,14.3-31.877,31.877v231.999c0,4.142 3.358,7.5 7.5,7.5h17.014v49.497c0,4.142 3.358,7.5 7.5,7.5h33.282c4.142,0 7.5-3.358 7.5-7.5v-17.999h295.201v17.999c0,4.142 3.357,7.5 7.5,7.5h33.281c4.143,0 7.5-3.358 7.5-7.5v-49.497h17.014c4.143,0 7.5-3.358 7.5-7.5v-231.999c-5.68434e-14-17.577-14.3-31.877-31.877-31.877zm-393.915,31.877c0-9.306 7.571-16.877 16.877-16.877h377.038c9.306,0 16.877,7.571 16.877,16.877v146.268h-10.405v-9.338c0-9.534-7.756-17.291-17.29-17.291h-11.303c9.474-5.205 18.378-11.811 26.397-19.83 2.929-2.929 2.929-7.678 0-10.606-45.699-45.699-120.059-45.699-165.758,0-2.929,2.929-2.929,7.678 0,10.606 8.019,8.019 16.923,14.625 26.397,19.83h-106.787c9.539-5.271 18.396-11.91 26.315-19.83 2.929-2.929 2.929-7.678 0-10.606-22.137-22.138-51.571-34.33-82.878-34.33-31.307,0-60.741,12.192-82.878,34.33-2.929,2.929-2.929,7.678 0,10.606 7.919,7.92 16.777,14.559 26.315,19.83h-11.221c-9.534,0-17.291,7.756-17.291,17.291v9.338h-10.405v-146.268zm385.386,146.268h-359.981v-9.338c-2.84217e-14-1.263 1.027-2.291 2.291-2.291h355.4c1.263,0 2.29,1.027 2.29,2.291v9.338zm-136.628-51.761c38.154-32.782 94.951-32.782 133.105,0-38.154,32.782-94.95,32.782-133.105,0zm-153.278,24.632c-24.688,0-48.039-8.693-66.557-24.633 18.519-15.939 41.87-24.633 66.557-24.633 24.688,0 48.039,8.693 66.558,24.633-18.519,15.94-41.87,24.633-66.558,24.633zm-52.685,162.357h-18.281v-41.997h18.282v41.997zm14.999-25.498v-16.499h295.201v16.499h-295.201zm328.483,25.498h-18.281v-41.997h18.281v41.997zm24.514-56.997h-410.792v-63.231h410.792v63.231z" fill="#FFFFFF"/>
  </g>
</svg>
