<?xml version="1.0" encoding="iso-8859-1"?>
<!-- Generator: Adobe Illustrator 19.0.0, SVG Export Plug-In . SVG Version: 6.00 Build 0)  -->
<svg xmlns="http://www.w3.org/2000/svg" xmlns:xlink="http://www.w3.org/1999/xlink" version="1.1" id="Layer_1" x="0px" y="0px" viewBox="0 0 512 512" style="enable-background:new 0 0 512 512;" xml:space="preserve" width="512px" height="512px">
<g>
	<g>
		<path d="M492.161,0c-5.633,0-10.199,4.567-10.199,10.199v44.883H173.901V52.58c0-24.971-20.316-45.285-45.286-45.285H99.642    c-24.971,0-45.286,20.315-45.286,45.285v2.502H30.038V10.199C30.038,4.567,25.472,0,19.839,0C14.205,0,9.639,4.567,9.639,10.199    v491.602c0,5.632,4.566,10.199,10.199,10.199c5.633,0,10.199-4.567,10.199-10.199V410.1h451.925v91.701    c0,5.632,4.566,10.199,10.199,10.199c5.633,0,10.199-4.567,10.199-10.199V10.199C502.361,4.567,497.795,0,492.161,0z     M481.962,75.48v64.977H172.527l64.977-64.977H481.962z M74.754,52.58c0-13.723,11.165-24.887,24.888-24.887h28.972    c13.724,0,24.888,11.164,24.888,24.887v2.502H74.754V52.58z M30.038,75.48h178.618l-64.977,64.977H30.038V75.48z M30.038,160.856    h451.925v143.469H173.901v-2.501c0-24.971-20.316-45.286-45.286-45.286H99.642c-24.971,0-45.286,20.316-45.286,45.286v2.501    H30.038V160.856z M153.502,301.824v2.501H74.754v-2.501c0-13.723,11.165-24.888,24.888-24.888h28.972    C142.338,276.936,153.502,288.101,153.502,301.824z M30.038,389.701v-64.978h178.618l-64.978,64.978H30.038z M481.963,389.701    H172.527l64.978-64.978h244.459V389.701z" fill="#FFFFFF"/>
	</g>
</g>
<g>
	<g>
		<path d="M376.3,359.894h-10.371c-5.633,0-10.199,4.567-10.199,10.199s4.566,10.199,10.199,10.199H376.3    c5.633,0,10.199-4.567,10.199-10.199S381.933,359.894,376.3,359.894z" fill="#FFFFFF"/>
	</g>
</g>
<g>
	<g>
		<path d="M461.339,359.894h-47.705c-5.633,0-10.199,4.567-10.199,10.199s4.566,10.199,10.199,10.199h47.705    c5.633,0,10.199-4.567,10.199-10.199S466.972,359.894,461.339,359.894z" fill="#FFFFFF"/>
	</g>
</g>
<g>
</g>
<g>
</g>
<g>
</g>
<g>
</g>
<g>
</g>
<g>
</g>
<g>
</g>
<g>
</g>
<g>
</g>
<g>
</g>
<g>
</g>
<g>
</g>
<g>
</g>
<g>
</g>
<g>
</g>
</svg>
