<?xml version="1.0" encoding="iso-8859-1"?>
<!-- Generator: Adobe Illustrator 19.0.0, SVG Export Plug-In . SVG Version: 6.00 Build 0)  -->
<svg xmlns="http://www.w3.org/2000/svg" xmlns:xlink="http://www.w3.org/1999/xlink" version="1.1" id="Capa_1" x="0px" y="0px" viewBox="0 0 480 480" style="enable-background:new 0 0 480 480;" xml:space="preserve" width="512px" height="512px">
<g>
	<g>
		<path d="M472,272H336H144H8c-4.424,0-8,3.584-8,8v192c0,4.416,3.576,8,8,8h136h192h136c4.424,0,8-3.584,8-8V280    C480,275.584,476.424,272,472,272z M136,464H16V360h120V464z M136,344H16v-56h120V344z M328,464H152V288h176V464z M464,464H344    V288h120V464z" fill="#FFFFFF"/>
	</g>
</g>
<g>
	<g>
		<path d="M136,0H8C3.576,0,0,3.584,0,8v96c0,4.416,3.576,8,8,8h128c4.424,0,8-3.584,8-8V8C144,3.584,140.424,0,136,0z M128,96H16    V16h112V96z" fill="#FFFFFF"/>
	</g>
</g>
<g>
	<g>
		<path d="M472,0H344c-4.424,0-8,3.584-8,8v96c0,4.416,3.576,8,8,8h128c4.424,0,8-3.584,8-8V8C480,3.584,476.424,0,472,0z M464,96    H352V16h112V96z" fill="#FFFFFF"/>
	</g>
</g>
<g>
	<g>
		<rect x="56" y="64" width="32" height="16" fill="#FFFFFF"/>
	</g>
</g>
<g>
	<g>
		<rect x="392" y="64" width="32" height="16" fill="#FFFFFF"/>
	</g>
</g>
<g>
	<g>
		<rect x="216" y="120" width="16" height="16" fill="#FFFFFF"/>
	</g>
</g>
<g>
	<g>
		<rect x="248" y="120" width="16" height="16" fill="#FFFFFF"/>
	</g>
</g>
<g>
	<g>
		<path d="M296,336H184c-4.424,0-8,3.584-8,8v96c0,4.416,3.576,8,8,8h112c4.424,0,8-3.584,8-8v-96C304,339.584,300.424,336,296,336z     M288,432h-96v-80h96V432z" fill="#FFFFFF"/>
	</g>
</g>
<g>
	<g>
		<rect x="168" y="304" width="16" height="16" fill="#FFFFFF"/>
	</g>
</g>
<g>
	<g>
		<rect x="200" y="304" width="16" height="16" fill="#FFFFFF"/>
	</g>
</g>
<g>
	<g>
		<rect x="232" y="304" width="16" height="16" fill="#FFFFFF"/>
	</g>
</g>
<g>
	<g>
		<rect x="264" y="304" width="16" height="16" fill="#FFFFFF"/>
	</g>
</g>
<g>
	<g>
		<rect x="296" y="304" width="16" height="16" fill="#FFFFFF"/>
	</g>
</g>
<g>
	<g>
		<rect x="392" y="304" width="32" height="16" fill="#FFFFFF"/>
	</g>
</g>
<g>
	<g>
		<rect x="56" y="304" width="40" height="16" fill="#FFFFFF"/>
	</g>
</g>
<g>
	<g>
		<rect x="56" y="376" width="40" height="16" fill="#FFFFFF"/>
	</g>
</g>
<g>
	<g>
		<rect x="208" y="368" width="64" height="16" fill="#FFFFFF"/>
	</g>
</g>
<g>
	<g>
		<path d="M480,176v-16H368v16h16v25.472c-9.288,3.312-16,12.112-16,22.528c0,13.232,10.768,24,24,24c6.168,0,11.744-2.408,16-6.24    c4.256,3.84,9.832,6.24,16,6.24c6.168,0,11.744-2.408,16-6.24c4.256,3.84,9.832,6.24,16,6.24c13.232,0,24-10.768,24-24    c0-10.416-6.712-19.216-16-22.528V176H480z M392,232c-4.416,0-8-3.592-8-8s3.584-8,8-8c4.416,0,8,3.592,8,8S396.416,232,392,232z     M400,201.472V176h16v25.472c-2.992,1.064-5.688,2.688-8,4.768C405.688,204.152,402.992,202.536,400,201.472z M424,232    c-4.416,0-8-3.592-8-8s3.584-8,8-8c4.416,0,8,3.592,8,8S428.416,232,424,232z M432,201.472V176h16v25.472    c-2.992,1.064-5.688,2.688-8,4.768C437.688,204.152,434.992,202.536,432,201.472z M456,232c-4.416,0-8-3.592-8-8s3.584-8,8-8    c4.416,0,8,3.592,8,8S460.416,232,456,232z" fill="#FFFFFF"/>
	</g>
</g>
<g>
	<g>
		<path d="M117.656,218.344L96,196.688V176h16v-16H16v16h16v20.688l-21.656,21.656c-3.128,3.128-3.128,8.184,0,11.312l24,24    C35.904,255.216,37.952,256,40,256s4.096-0.784,5.656-2.344L64,235.312l18.344,18.344C83.904,255.216,85.952,256,88,256    s4.096-0.784,5.656-2.344l24-24C120.784,226.528,120.784,221.472,117.656,218.344z M40,236.688L27.312,224L40,211.312L52.688,224    L40,236.688z M48,196.688V176h32v20.688l-16,16L48,196.688z M88,236.688L75.312,224L88,211.312L100.688,224L88,236.688z" fill="#FFFFFF"/>
	</g>
</g>
<g>
	<g>
		<path d="M334.4,155.2l-48-64c-1.512-2.016-3.888-3.2-6.4-3.2V8c0-4.416-3.576-8-8-8h-64c-4.424,0-8,3.584-8,8v80    c-2.512,0-4.888,1.184-6.4,3.2l-48,64c-1.824,2.424-2.112,5.664-0.76,8.376c1.36,2.712,4.128,4.424,7.16,4.424h176    c3.032,0,5.8-1.712,7.16-4.424C336.512,160.864,336.224,157.624,334.4,155.2z M216,16h48v72h-48V16z M168,152l36-48h4h64h4l36,48    H168z" fill="#FFFFFF"/>
	</g>
</g>
<g>
</g>
<g>
</g>
<g>
</g>
<g>
</g>
<g>
</g>
<g>
</g>
<g>
</g>
<g>
</g>
<g>
</g>
<g>
</g>
<g>
</g>
<g>
</g>
<g>
</g>
<g>
</g>
<g>
</g>
</svg>
