<?xml version="1.0" encoding="UTF-8"?>
<svg xmlns="http://www.w3.org/2000/svg" xmlns:xlink="http://www.w3.org/1999/xlink" width="130pt" height="130pt" viewBox="0 0 130 130" version="1.1">
<g id="surface1">
<path style=" stroke:none;fill-rule:nonzero;fill:rgb(93.72549%,80%,63.921569%);fill-opacity:1;" d="M 108.789062 51.558594 C 108.585938 47.101562 109.191406 43.152344 107.167969 39.808594 C 102.304688 31.5 90.148438 26.640625 65.839844 26.640625 L 65.839844 27.347656 L 65.332031 27.347656 L 65.839844 27.347656 L 65.839844 26.640625 C 41.53125 26.640625 28.765625 31.5 23.90625 39.910156 C 21.980469 43.351562 22.183594 47.203125 21.878906 51.660156 C 21.675781 55.203125 20.054688 58.953125 20.765625 63.003906 C 21.574219 68.269531 21.878906 73.539062 22.691406 78.398438 C 23.296875 82.351562 28.765625 85.695312 29.273438 89.441406 C 30.691406 99.773438 41.429688 104.535156 65.738281 104.535156 L 65.738281 105.34375 L 65.132812 105.34375 L 65.839844 105.34375 L 65.839844 104.535156 C 90.148438 104.535156 100.480469 99.773438 101.800781 89.441406 C 102.304688 85.59375 107.371094 82.351562 107.976562 78.398438 C 108.789062 73.539062 109.09375 68.269531 109.902344 63.003906 C 110.609375 58.953125 108.992188 55.101562 108.789062 51.558594 Z M 108.789062 51.558594 "/>
<path style=" stroke:none;fill-rule:nonzero;fill:rgb(80%,67.45098%,55.294118%);fill-opacity:1;" d="M 65.433594 55.203125 C 69.789062 55.304688 72.828125 58.039062 75.664062 60.574219 C 79.007812 63.511719 84.679688 65.535156 87.011719 68.070312 C 89.339844 70.601562 92.378906 73.132812 93.492188 77.082031 C 94.605469 81.035156 94.910156 86.097656 94.910156 87.414062 C 94.910156 88.730469 95.621094 88.429688 97.644531 87.414062 C 102.40625 85.085938 107.671875 78.804688 107.671875 78.804688 C 107.066406 82.757812 101.898438 86.300781 101.394531 90.050781 C 100.179688 100.378906 90.148438 105.34375 65.332031 105.34375 L 65.230469 105.34375 L 65.839844 105.34375 "/>
<path style=" stroke:none;fill-rule:nonzero;fill:rgb(80%,67.45098%,55.294118%);fill-opacity:1;" d="M 81.4375 47.304688 C 82.351562 50.445312 85.59375 61.078125 79.3125 57.535156 C 79.3125 57.535156 81.945312 59.054688 83.566406 64.828125 C 85.289062 70.601562 89.441406 71.308594 89.441406 71.308594 C 89.441406 71.308594 96.226562 72.625 101.292969 68.269531 C 105.546875 64.625 106.253906 58.140625 104.433594 53.179688 C 102.609375 48.316406 99.367188 46.796875 94.605469 45.785156 C 89.847656 44.671875 80.324219 43.757812 81.4375 47.304688 Z M 81.4375 47.304688 "/>
<path style=" stroke:none;fill-rule:nonzero;fill:rgb(0%,0%,0%);fill-opacity:1;" d="M 102.40625 58.851562 C 102.40625 63.773438 98.414062 67.765625 93.492188 67.765625 C 88.570312 67.765625 84.578125 63.773438 84.578125 58.851562 C 84.578125 53.929688 88.570312 49.9375 93.492188 49.9375 C 98.414062 49.9375 102.40625 53.929688 102.40625 58.851562 Z M 102.40625 58.851562 "/>
<path style=" stroke:none;fill-rule:nonzero;fill:rgb(100%,100%,100%);fill-opacity:1;" d="M 93.492188 54.902344 C 93.492188 56.1875 92.449219 57.230469 91.164062 57.230469 C 89.875 57.230469 88.832031 56.1875 88.832031 54.902344 C 88.832031 53.613281 89.875 52.570312 91.164062 52.570312 C 92.449219 52.570312 93.492188 53.613281 93.492188 54.902344 Z M 93.492188 54.902344 "/>
<path style=" stroke:none;fill-rule:nonzero;fill:rgb(93.72549%,80%,63.921569%);fill-opacity:1;" d="M 79.917969 58.445312 C 79.917969 58.445312 87.921875 63.914062 92.277344 69.285156 C 96.632812 74.652344 96.53125 75.664062 96.53125 75.664062 L 93.390625 77.082031 C 93.390625 77.082031 88.933594 68.675781 83.464844 65.535156 C 77.894531 62.394531 77.285156 59.761719 77.285156 59.761719 Z M 79.917969 58.445312 "/>
<path style=" stroke:none;fill-rule:nonzero;fill:rgb(80%,67.45098%,55.294118%);fill-opacity:1;" d="M 65.738281 55.203125 C 61.382812 55.304688 58.140625 58.039062 55.203125 60.574219 C 51.863281 63.511719 45.988281 65.535156 43.65625 68.070312 C 41.328125 70.601562 38.1875 73.132812 37.074219 77.082031 C 35.957031 81.035156 35.554688 86.097656 35.554688 87.414062 C 35.554688 88.730469 35.757812 88.832031 32.820312 87.414062 C 28.058594 85.1875 22.789062 78.804688 22.789062 78.804688 C 23.398438 82.757812 28.5625 86.300781 29.070312 90.050781 C 30.488281 100.378906 40.515625 105.34375 65.332031 105.34375 L 65.839844 105.34375 "/>
<path style=" stroke:none;fill-rule:nonzero;fill:rgb(33.72549%,20%,16.862745%);fill-opacity:1;" d="M 89.238281 72.324219 C 84.375 66.347656 76.578125 60.777344 65.738281 60.777344 L 65.636719 60.777344 C 54.800781 60.777344 47 66.347656 42.136719 72.324219 C 37.074219 78.5 37.476562 80.933594 37.476562 86.808594 C 37.476562 108.078125 44.972656 102 49.9375 104.636719 C 55 107.167969 60.269531 106.355469 65.636719 106.355469 L 65.738281 106.355469 C 71.207031 106.355469 76.375 107.066406 81.4375 104.535156 C 86.402344 102 93.898438 108.28125 93.898438 87.011719 C 94 81.136719 94.304688 78.5 89.238281 72.324219 Z M 89.238281 72.324219 "/>
<path style=" stroke:none;fill-rule:nonzero;fill:rgb(26.666667%,15.686275%,13.72549%);fill-opacity:1;" d="M 65.230469 66.042969 C 65.230469 66.042969 64.523438 75.867188 63.105469 77.792969 L 65.738281 77.183594 Z M 65.230469 66.042969 "/>
<path style=" stroke:none;fill-rule:nonzero;fill:rgb(26.666667%,15.686275%,13.72549%);fill-opacity:1;" d="M 65.941406 66.042969 C 65.941406 66.042969 66.648438 75.867188 68.070312 77.792969 L 65.433594 77.183594 Z M 65.941406 66.042969 "/>
<path style=" stroke:none;fill-rule:nonzero;fill:rgb(33.72549%,20%,16.862745%);fill-opacity:1;" d="M 57.433594 63.714844 C 56.417969 61.382812 60.066406 57.636719 65.839844 57.535156 C 71.613281 57.535156 75.261719 61.28125 74.246094 63.714844 C 73.234375 66.144531 69.585938 66.851562 65.839844 66.953125 C 62.195312 66.851562 58.445312 66.144531 57.433594 63.714844 Z M 57.433594 63.714844 "/>
<path style=" stroke:none;fill-rule:nonzero;fill:rgb(0%,0%,0%);fill-opacity:1;" d="M 65.839844 66.042969 C 65.839844 65.636719 69.285156 65.535156 71.105469 64.320312 C 71.105469 64.320312 67.359375 65.535156 66.550781 65.03125 C 65.738281 64.625 65.535156 63.410156 65.535156 63.410156 C 65.535156 63.410156 65.230469 64.625 64.625 65.03125 C 63.914062 65.433594 59.660156 64.320312 59.660156 64.320312 C 59.660156 64.320312 65.332031 65.738281 65.332031 66.042969 C 65.332031 66.347656 65.230469 67.359375 65.230469 68.070312 C 65.230469 70.601562 65.230469 76.882812 65.636719 77.386719 C 66.246094 78.300781 66.042969 70.601562 66.042969 68.070312 C 65.941406 67.257812 65.941406 66.449219 65.839844 66.042969 Z M 65.839844 66.042969 "/>
<path style=" stroke:none;fill-rule:nonzero;fill:rgb(49.803922%,29.019608%,25.490196%);fill-opacity:1;" d="M 66.042969 79.617188 C 67.765625 79.617188 70.804688 80.832031 73.539062 82.757812 C 70.90625 79.820312 67.765625 77.792969 66.042969 77.792969 C 64.21875 77.792969 60.371094 80.019531 57.636719 83.261719 C 60.472656 81.035156 64.117188 79.617188 66.042969 79.617188 Z M 66.042969 79.617188 "/>
<path style=" stroke:none;fill-rule:nonzero;fill:rgb(26.666667%,15.686275%,13.72549%);fill-opacity:1;" d="M 65.332031 97.542969 C 61.484375 97.542969 57.738281 96.328125 54.292969 95.417969 C 53.582031 95.214844 52.875 95.722656 52.164062 95.519531 C 45.785156 93.492188 40.617188 90.050781 37.476562 85.695312 L 37.476562 86.707031 C 37.476562 107.976562 44.972656 102 49.9375 104.535156 C 55 107.066406 60.269531 106.253906 65.636719 106.253906 L 65.738281 106.253906 C 71.207031 106.253906 76.375 106.964844 81.4375 104.433594 C 86.402344 101.898438 93.898438 108.078125 93.898438 86.808594 C 93.898438 85.996094 93.898438 85.1875 94 84.476562 C 91.0625 89.238281 85.695312 92.988281 79.007812 95.214844 C 78.398438 95.417969 76.980469 94.910156 76.375 95.011719 C 72.726562 96.226562 69.488281 97.542969 65.332031 97.542969 Z M 65.332031 97.542969 "/>
<path style=" stroke:none;fill-rule:nonzero;fill:rgb(26.666667%,15.686275%,13.72549%);fill-opacity:1;" d="M 55.710938 86.097656 C 55.710938 86.097656 53.179688 93.695312 54.902344 97.039062 L 52.570312 96.023438 C 52.570312 96.023438 54.292969 88.328125 55.710938 86.097656 Z M 75.765625 86.097656 C 75.765625 86.097656 78.300781 93.695312 76.578125 97.039062 L 78.90625 96.023438 C 78.90625 96.023438 77.082031 88.328125 75.765625 86.097656 Z M 75.765625 86.097656 "/>
<path style=" stroke:none;fill-rule:nonzero;fill:rgb(80%,67.45098%,55.294118%);fill-opacity:1;" d="M 49.226562 47.304688 C 48.316406 50.445312 45.074219 61.078125 51.355469 57.535156 C 51.355469 57.535156 48.722656 59.054688 47.101562 64.828125 C 45.480469 70.601562 41.226562 71.308594 41.226562 71.308594 C 41.226562 71.308594 34.4375 72.625 29.375 68.269531 C 25.121094 64.625 24.410156 58.140625 26.234375 53.179688 C 28.058594 48.214844 31.300781 46.796875 36.058594 45.785156 C 40.820312 44.671875 50.242188 43.757812 49.226562 47.304688 Z M 49.226562 47.304688 "/>
<path style=" stroke:none;fill-rule:nonzero;fill:rgb(0%,0%,0%);fill-opacity:1;" d="M 65.738281 77.792969 C 68.472656 77.792969 76.980469 83.667969 77.082031 90.859375 L 77.082031 90.453125 C 77.082031 82.957031 70.195312 76.980469 65.738281 76.980469 C 61.28125 76.980469 54.394531 83.058594 54.394531 90.453125 L 54.394531 90.859375 C 54.496094 83.667969 63.003906 77.792969 65.738281 77.792969 Z M 65.738281 77.792969 "/>
<path style=" stroke:none;fill-rule:nonzero;fill:rgb(20%,9.019608%,7.058824%);fill-opacity:1;" d="M 68.355469 62.09375 C 68.144531 61.28125 67.621094 60.714844 67.191406 60.824219 C 66.757812 60.9375 66.574219 61.6875 66.785156 62.5 C 66.996094 63.3125 67.519531 63.878906 67.949219 63.765625 C 68.382812 63.65625 68.566406 62.90625 68.355469 62.09375 Z M 68.355469 62.09375 "/>
<path style=" stroke:none;fill-rule:nonzero;fill:rgb(20%,9.019608%,7.058824%);fill-opacity:1;" d="M 63.964844 62.542969 C 64.214844 61.742188 64.070312 60.984375 63.644531 60.851562 C 63.214844 60.71875 62.667969 61.261719 62.417969 62.0625 C 62.167969 62.863281 62.316406 63.621094 62.742188 63.753906 C 63.167969 63.886719 63.71875 63.34375 63.964844 62.542969 Z M 63.964844 62.542969 "/>
<path style=" stroke:none;fill-rule:nonzero;fill:rgb(0%,0%,0%);fill-opacity:1;" d="M 46.59375 58.851562 C 46.59375 63.773438 42.605469 67.765625 37.679688 67.765625 C 32.757812 67.765625 28.765625 63.773438 28.765625 58.851562 C 28.765625 53.929688 32.757812 49.9375 37.679688 49.9375 C 42.605469 49.9375 46.59375 53.929688 46.59375 58.851562 Z M 46.59375 58.851562 "/>
<path style=" stroke:none;fill-rule:nonzero;fill:rgb(100%,100%,100%);fill-opacity:1;" d="M 42.339844 54.902344 C 42.339844 56.1875 41.296875 57.230469 40.011719 57.230469 C 38.722656 57.230469 37.679688 56.1875 37.679688 54.902344 C 37.679688 53.613281 38.722656 52.570312 40.011719 52.570312 C 41.296875 52.570312 42.339844 53.613281 42.339844 54.902344 Z M 42.339844 54.902344 "/>
<path style=" stroke:none;fill-rule:nonzero;fill:rgb(49.803922%,29.019608%,25.490196%);fill-opacity:1;" d="M 68.371094 58.953125 C 68.371094 58.851562 66.042969 59.964844 65.433594 60.066406 C 64.828125 59.964844 62.496094 58.851562 62.496094 58.953125 Z M 68.371094 58.953125 "/>
<path style=" stroke:none;fill-rule:nonzero;fill:rgb(93.72549%,80%,63.921569%);fill-opacity:1;" d="M 50.644531 58.445312 C 50.644531 58.445312 42.644531 63.914062 38.289062 69.285156 C 33.933594 74.652344 34.035156 75.664062 34.035156 75.664062 L 37.175781 77.082031 C 37.175781 77.082031 41.632812 68.675781 47.101562 65.535156 C 52.570312 62.394531 53.28125 59.761719 53.28125 59.761719 Z M 50.644531 58.445312 "/>
<path style=" stroke:none;fill-rule:nonzero;fill:rgb(80%,67.45098%,55.294118%);fill-opacity:1;" d="M 33.121094 42.238281 C 33.121094 42.238281 30.386719 49.734375 24.308594 52.875 C 24.308594 52.875 33.832031 51.761719 33.121094 42.238281 Z M 97.039062 42.238281 C 97.039062 42.238281 99.773438 49.734375 105.851562 52.875 C 105.851562 52.875 96.328125 51.761719 97.039062 42.238281 Z M 79.71875 56.21875 C 79.71875 56.21875 73.742188 49.9375 65.738281 49.734375 L 65.941406 49.734375 C 57.839844 49.9375 51.964844 56.21875 51.964844 56.21875 C 58.953125 51.355469 64.929688 51.457031 65.941406 51.457031 C 65.839844 51.457031 72.726562 51.355469 79.71875 56.21875 Z M 72.726562 43.050781 C 72.726562 43.050781 69.6875 38.796875 65.636719 38.695312 L 65.839844 38.695312 C 62.800781 38.796875 58.851562 43.050781 58.851562 43.050781 C 62.292969 39.707031 65.839844 39.808594 65.839844 39.808594 C 65.839844 39.808594 69.183594 39.707031 72.726562 43.050781 Z M 37.679688 74.144531 C 37.679688 74.144531 32.921875 76.476562 29.476562 75.058594 L 29.375 75.058594 C 26.335938 73.335938 24.816406 68.167969 24.816406 68.167969 C 24.816406 68.167969 27.855469 77.285156 37.679688 74.144531 Z M 93.1875 74.144531 C 93.1875 74.144531 97.949219 76.476562 101.394531 75.058594 C 105.445312 73.335938 106.054688 68.167969 106.054688 68.167969 C 106.054688 68.167969 103.015625 77.285156 93.1875 74.144531 Z M 93.1875 74.144531 "/>
<path style=" stroke:none;fill-rule:nonzero;fill:rgb(80%,67.45098%,55.294118%);fill-opacity:1;" d="M 43.152344 41.734375 C 45.785156 41.226562 50.140625 41.125 53.582031 42.238281 C 57.9375 43.757812 54.394531 49.328125 55.304688 49.632812 C 56.21875 49.9375 57.433594 45.785156 65.535156 46.1875 C 73.742188 46.59375 74.652344 50.242188 75.765625 49.632812 C 76.882812 49.027344 74.652344 39.503906 86.910156 41.734375 C 86.910156 41.734375 74.042969 38.289062 74.652344 47.609375 C 74.652344 47.609375 67.257812 41.933594 56.925781 47 C 57.027344 47 59.660156 38.289062 43.152344 41.734375 Z M 88.023438 41.734375 C 88.226562 41.734375 88.328125 41.832031 88.429688 41.832031 C 88.53125 41.832031 88.328125 41.734375 88.023438 41.734375 Z M 88.023438 41.734375 Z M 39.605469 29.273438 C 39.605469 29.273438 28.664062 43.050781 27.046875 48.316406 C 25.425781 53.683594 24.207031 75.664062 22.789062 78.804688 L 17.726562 57.128906 L 27.046875 34.539062 Z M 91.0625 29.273438 C 91.0625 29.273438 102 43.050781 103.621094 48.316406 C 105.242188 53.683594 106.457031 75.664062 107.875 78.804688 L 112.941406 57.128906 L 103.621094 34.539062 Z M 91.0625 29.273438 "/>
<path style=" stroke:none;fill-rule:nonzero;fill:rgb(33.72549%,20%,16.862745%);fill-opacity:1;" d="M 90.554688 29.273438 C 90.554688 29.273438 102.304688 39.097656 105.75 50.445312 C 109.191406 61.789062 107.773438 75.5625 110.410156 77.285156 C 114.15625 79.71875 118.410156 65.230469 119.828125 63.714844 C 122.058594 61.28125 129.453125 55.101562 129.957031 53.988281 C 130.464844 52.875 114.96875 35.957031 108.179688 32.617188 C 99.976562 28.765625 89.847656 28.464844 90.554688 29.273438 Z M 90.554688 29.273438 "/>
<path style=" stroke:none;fill-rule:nonzero;fill:rgb(26.666667%,15.686275%,13.72549%);fill-opacity:1;" d="M 100.582031 35.351562 C 100.582031 35.351562 114.460938 53.078125 114.257812 75.160156 L 119.828125 63.8125 C 119.726562 63.8125 114.867188 49.328125 100.582031 35.351562 Z M 100.582031 35.351562 "/>
<path style=" stroke:none;fill-rule:nonzero;fill:rgb(33.72549%,20%,16.862745%);fill-opacity:1;" d="M 39.605469 29.273438 C 39.605469 29.273438 27.855469 39.097656 24.410156 50.445312 C 20.96875 61.789062 22.386719 75.5625 19.753906 77.285156 C 16.003906 79.71875 11.75 65.230469 10.332031 63.714844 C 8.101562 61.28125 0.710938 55.101562 0.203125 53.988281 C -0.304688 52.875 15.195312 35.957031 21.980469 32.617188 C 30.183594 28.765625 40.3125 28.464844 39.605469 29.273438 Z M 39.605469 29.273438 "/>
<path style=" stroke:none;fill-rule:nonzero;fill:rgb(26.666667%,15.686275%,13.72549%);fill-opacity:1;" d="M 29.578125 35.351562 C 29.578125 35.351562 15.699219 53.078125 15.902344 75.160156 L 10.433594 63.8125 C 10.433594 63.8125 15.296875 49.328125 29.578125 35.351562 Z M 29.578125 35.351562 "/>
<path style=" stroke:none;fill-rule:nonzero;fill:rgb(80%,67.45098%,55.294118%);fill-opacity:1;" d="M 22.082031 75.5625 C 22.082031 75.5625 23.09375 81.035156 24.714844 82.757812 C 26.335938 84.476562 25.222656 81.4375 25.222656 81.4375 C 25.222656 81.4375 23.5 80.527344 23.804688 73.539062 C 24.109375 66.550781 22.082031 75.5625 22.082031 75.5625 Z M 108.484375 75.5625 C 108.484375 75.5625 107.472656 81.035156 105.851562 82.757812 C 104.230469 84.476562 105.34375 81.4375 105.34375 81.4375 C 105.34375 81.4375 107.066406 80.527344 106.761719 73.539062 C 106.457031 66.550781 108.484375 75.5625 108.484375 75.5625 Z M 108.484375 75.5625 "/>
<path style=" stroke:none;fill-rule:nonzero;fill:rgb(26.666667%,15.686275%,13.72549%);fill-opacity:1;" d="M 56.015625 71.410156 C 56.015625 71.859375 55.652344 72.222656 55.203125 72.222656 C 54.753906 72.222656 54.394531 71.859375 54.394531 71.410156 C 54.394531 70.960938 54.753906 70.601562 55.203125 70.601562 C 55.652344 70.601562 56.015625 70.960938 56.015625 71.410156 Z M 56.015625 71.410156 "/>
<path style=" stroke:none;fill-rule:nonzero;fill:rgb(26.666667%,15.686275%,13.72549%);fill-opacity:1;" d="M 51.355469 76.273438 C 51.355469 76.722656 50.992188 77.082031 50.542969 77.082031 C 50.097656 77.082031 49.734375 76.722656 49.734375 76.273438 C 49.734375 75.824219 50.097656 75.460938 50.542969 75.460938 C 50.992188 75.460938 51.355469 75.824219 51.355469 76.273438 Z M 51.355469 76.273438 "/>
<path style=" stroke:none;fill-rule:nonzero;fill:rgb(26.666667%,15.686275%,13.72549%);fill-opacity:1;" d="M 49.835938 71.410156 C 49.835938 71.859375 49.472656 72.222656 49.027344 72.222656 C 48.578125 72.222656 48.214844 71.859375 48.214844 71.410156 C 48.214844 70.960938 48.578125 70.601562 49.027344 70.601562 C 49.472656 70.601562 49.835938 70.960938 49.835938 71.410156 Z M 49.835938 71.410156 "/>
<path style=" stroke:none;fill-rule:nonzero;fill:rgb(26.666667%,15.686275%,13.72549%);fill-opacity:1;" d="M 75.765625 71.410156 C 75.765625 71.859375 75.40625 72.222656 74.957031 72.222656 C 74.507812 72.222656 74.144531 71.859375 74.144531 71.410156 C 74.144531 70.960938 74.507812 70.601562 74.957031 70.601562 C 75.40625 70.601562 75.765625 70.960938 75.765625 71.410156 Z M 75.765625 71.410156 "/>
<path style=" stroke:none;fill-rule:nonzero;fill:rgb(26.666667%,15.686275%,13.72549%);fill-opacity:1;" d="M 80.425781 76.273438 C 80.425781 76.722656 80.066406 77.082031 79.617188 77.082031 C 79.167969 77.082031 78.804688 76.722656 78.804688 76.273438 C 78.804688 75.824219 79.167969 75.460938 79.617188 75.460938 C 80.066406 75.460938 80.425781 75.824219 80.425781 76.273438 Z M 80.425781 76.273438 "/>
<path style=" stroke:none;fill-rule:nonzero;fill:rgb(26.666667%,15.686275%,13.72549%);fill-opacity:1;" d="M 81.945312 71.410156 C 81.945312 71.859375 81.585938 72.222656 81.136719 72.222656 C 80.6875 72.222656 80.324219 71.859375 80.324219 71.410156 C 80.324219 70.960938 80.6875 70.601562 81.136719 70.601562 C 81.585938 70.601562 81.945312 70.960938 81.945312 71.410156 Z M 81.945312 71.410156 "/>
</g>
</svg>
