<?xml version="1.0" encoding="utf-8"?>
<!-- Generator: Adobe Illustrator 24.1.0, SVG Export Plug-In . SVG Version: 6.00 Build 0)  -->
<svg version="1.1" id="Capa_1" xmlns="http://www.w3.org/2000/svg" xmlns:xlink="http://www.w3.org/1999/xlink" x="0px" y="0px"
	 viewBox="0 0 150 150" style="enable-background:new 0 0 150 150;" xml:space="preserve">
<style type="text/css">
	.st0{fill:#CF649A;}
</style>
<path class="st0" d="M120.84,76.75c-4.47,0.03-8.35,1.1-11.6,2.7c-1.2-2.37-2.4-4.45-2.6-6c-0.22-1.8-0.5-2.9-0.22-5.05
	c0.27-2.15,1.52-5.2,1.52-5.45c-0.03-0.22-0.27-1.32-2.85-1.35c-2.57-0.03-4.8,0.5-5.05,1.17c-0.25,0.67-0.75,2.22-1.07,3.82
	c-0.45,2.35-5.15,10.67-7.82,15.05c-0.87-1.7-1.62-3.2-1.77-4.4c-0.22-1.8-0.5-2.9-0.22-5.05s1.52-5.2,1.52-5.45
	c-0.03-0.22-0.27-1.32-2.85-1.35c-2.57-0.03-4.8,0.5-5.05,1.17s-0.52,2.27-1.07,3.82c-0.52,1.55-6.77,15.45-8.4,19.07
	c-0.82,1.85-1.55,3.32-2.07,4.32c-0.52,1-0.03,0.07-0.07,0.17c-0.45,0.85-0.7,1.32-0.7,1.32v0.02c-0.35,0.62-0.72,1.22-0.9,1.22
	c-0.12,0-0.37-1.67,0.05-3.97c0.92-4.82,3.17-12.35,3.15-12.62c0-0.12,0.42-1.45-1.45-2.12c-1.82-0.67-2.47,0.45-2.62,0.45
	s-0.27,0.4-0.27,0.4s2.02-8.47-3.87-8.47c-3.7,0-8.8,4.02-11.32,7.7c-1.6,0.87-5,2.72-8.6,4.7c-1.37,0.75-2.8,1.55-4.15,2.27
	l-0.27-0.3c-7.15-7.62-20.37-13.02-19.82-23.27c0.2-3.72,1.5-13.55,25.4-25.45c19.57-9.75,35.25-7.07,37.97-1.12
	c3.87,8.5-8.37,24.3-28.72,26.57c-7.75,0.87-11.82-2.12-12.85-3.25c-1.07-1.17-1.22-1.22-1.62-1c-0.65,0.35-0.25,1.4,0,2.02
	c0.6,1.57,3.1,4.37,7.35,5.77c3.72,1.22,12.82,1.9,23.82-2.35c12.32-4.77,21.95-18.02,19.12-29.1c-2.87-11.27-21.57-14.97-39.25-8.7
	c-10.52,3.75-21.92,9.6-30.12,17.27c-9.75,9.1-11.3,17.05-10.65,20.35c2.27,11.77,18.5,19.45,25,25.12c-0.32,0.17-0.62,0.35-0.9,0.5
	c-3.25,1.6-15.62,8.07-18.72,14.92c-3.5,7.75,0.55,13.32,3.25,14.07c8.35,2.32,16.9-1.85,21.52-8.72c4.6-6.87,4.05-15.8,1.92-19.87
	l-0.08-0.15l2.55-1.5c1.65-0.97,3.27-1.87,4.7-2.65c-0.8,2.17-1.37,4.75-1.67,8.5c-0.35,4.4,1.45,10.1,3.82,12.35
	c1.05,0.97,2.3,1,3.07,1c2.75,0,4-2.27,5.37-5c1.7-3.32,3.2-7.17,3.2-7.17s-1.87,10.42,3.25,10.42c1.87,0,3.75-2.42,4.6-3.67v0.03
	c0,0,0.05-0.07,0.15-0.25c0.2-0.3,0.3-0.47,0.3-0.47v-0.05c0.75-1.3,2.42-4.27,4.92-9.2c3.22-6.35,6.32-14.3,6.32-14.3
	s0.3,1.95,1.22,5.15c0.55,1.9,1.75,3.97,2.67,6c-0.75,1.05-1.2,1.65-1.2,1.65l0.03,0.03c-0.6,0.8-1.27,1.65-1.97,2.5
	c-2.55,3.05-5.6,6.52-6,7.52c-0.47,1.17-0.37,2.05,0.55,2.75c0.67,0.5,1.87,0.6,3.15,0.5c2.3-0.15,3.9-0.72,4.7-1.07
	c1.25-0.45,2.67-1.12,4.05-2.12c2.5-1.85,4.02-4.47,3.87-7.97c-0.07-1.92-0.7-3.82-1.47-5.62c0.22-0.32,0.45-0.65,0.67-1
	c3.95-5.77,7-12.12,7-12.12s0.3,1.95,1.22,5.15c0.47,1.62,1.42,3.4,2.27,5.15c-3.7,3.02-6.02,6.52-6.82,8.82
	c-1.47,4.25-0.32,6.17,1.85,6.62c0.97,0.2,2.37-0.25,3.42-0.7c1.3-0.42,2.87-1.15,4.32-2.22c2.5-1.85,4.9-4.42,4.77-7.9
	c-0.07-1.6-0.5-3.17-1.07-4.67c3.15-1.3,7.22-2.05,12.4-1.42c11.12,1.3,13.32,8.25,12.9,11.15c-0.42,2.9-2.75,4.5-3.52,5
	c-0.77,0.47-1.02,0.65-0.95,1c0.1,0.52,0.45,0.5,1.12,0.4c0.92-0.15,5.85-2.37,6.05-7.72C138.94,84.17,132.41,76.67,120.84,76.75
	L120.84,76.75z M35.04,105.67c-3.67,4.02-8.85,5.55-11.05,4.25c-2.37-1.37-1.45-7.3,3.07-11.57c2.75-2.6,6.32-5,8.67-6.47
	c0.52-0.32,1.32-0.8,2.27-1.37c0.15-0.1,0.25-0.15,0.25-0.15c0.17-0.1,0.37-0.22,0.57-0.35C40.52,96.1,38.92,101.45,35.04,105.67
	L35.04,105.67z M61.92,87.4c-1.27,3.12-3.97,11.15-5.6,10.7c-1.4-0.37-2.25-6.45-0.27-12.45c1-3.02,3.12-6.62,4.37-8.02
	c2.02-2.25,4.22-3,4.77-2.07C65.84,76.75,62.72,85.45,61.92,87.4z M84.09,98c-0.55,0.27-1.05,0.47-1.27,0.32
	c-0.17-0.1,0.22-0.47,0.22-0.47s2.77-2.97,3.87-4.35c0.62-0.8,1.37-1.72,2.17-2.77v0.3C89.09,94.62,85.64,97.02,84.09,98z
	 M101.19,94.1c-0.4-0.3-0.35-1.22,1-4.12c0.52-1.15,1.72-3.07,3.8-4.9c0.25,0.75,0.4,1.47,0.37,2.15
	C106.34,91.72,103.14,93.4,101.19,94.1z"/>
</svg>
